<svg id="Layer_1" data-name="Layer 1" xmlns="http://www.w3.org/2000/svg" viewBox="0 0 18 18.07"><defs><style>.cls-1{fill:#fff;}</style></defs><title>red_book_iconArtboard 1 copy 80</title><path class="cls-1" d="M7.35,7.73a3.66,3.66,0,0,0,3.71-3.61A3.66,3.66,0,0,0,7.35.52,3.66,3.66,0,0,0,3.64,4.12,3.66,3.66,0,0,0,7.35,7.73ZM16,10.22a4.78,4.78,0,0,0-5.61-1.37,5.68,5.68,0,0,0-2.3-.47H6.58A5.55,5.55,0,0,0,1,13.83V15a.8.8,0,0,0,.81.78H8.64a4.77,4.77,0,0,0,6.56.81A4.47,4.47,0,0,0,16,10.22Zm-3.68,6.16A3.37,3.37,0,1,1,15.82,13v0A3.44,3.44,0,0,1,12.36,16.38Zm1.66-4H13v-1a.61.61,0,0,0-1.21,0v1H10.68a.59.59,0,1,0,0,1.18h1.07v1a.61.61,0,0,0,1.21,0v-1H14a.59.59,0,1,0,0-1.18Z"/></svg>