<svg id="Layer_1" data-name="Layer 1" xmlns="http://www.w3.org/2000/svg" viewBox="0 0 21 24"><defs><style>.cls-1,.cls-2{fill:#e32e27;}.cls-2{fill-rule:evenodd;}.cls-3{fill:#fff;}</style></defs><title>pdfArtboard 1 copy 300</title><path class="cls-1" d="M13.54,1,20,7.57V23H3V1H13.54M14,0H2V24H21V7.16L14,0Z"/><path class="cls-2" d="M0,11H17v9H0Z"/><polygon class="cls-1" points="13 8 13 0 14 0 14 7 20.99 7 20.99 7.99 13 8"/><path class="cls-3" d="M2,13H4.08a2.23,2.23,0,0,1,1.47.43,1.38,1.38,0,0,1,.51,1.16,1,1,0,0,1-.51,1A2.23,2.23,0,0,1,4.08,16H3v2H2Zm1,1v1H4.12a.77.77,0,0,0,.54-.17c.13-.12.19-.07.19-.28a.41.41,0,0,0-.19-.38A.78.78,0,0,0,4.12,14Z"/><path class="cls-3" d="M7,13l.79,0a5.57,5.57,0,0,1,1.57.16,2.17,2.17,0,0,1,.93.55,2.14,2.14,0,0,1,.51.78,2.81,2.81,0,0,1,.17,1,2.84,2.84,0,0,1-.17,1,2.14,2.14,0,0,1-.51.78,2.21,2.21,0,0,1-.94.55A5.56,5.56,0,0,1,7.79,18H7Zm1,1v3h.4a1.62,1.62,0,0,0,1.16-.39A1.48,1.48,0,0,0,10,15.5a1.47,1.47,0,0,0-.4-1.11A1.63,1.63,0,0,0,8.4,14Z"/><path class="cls-3" d="M12,13h3v1H13v1h2v1H13v2H12Z"/></svg>