<svg id="Layer_1" data-name="Layer 1" xmlns="http://www.w3.org/2000/svg" viewBox="0 0 23 23"><defs><style>.cls-1{fill:#8c949b;}</style></defs><title>red_book_iconArtboard 1 copy 50</title><path class="cls-1" d="M11.5,0A11.49,11.49,0,0,0,3.94,20.15a.64.64,0,0,0,.14.12,11.46,11.46,0,0,0,14.81,0,.64.64,0,0,0,.15-.12A11.49,11.49,0,0,0,11.5,0Zm0,21.47A10,10,0,0,1,5.42,19.4a6.66,6.66,0,0,1,6.08-4.16v0a6.66,6.66,0,0,1,6.08,4.16A10,10,0,0,1,11.5,21.47ZM7.84,10a3.66,3.66,0,1,1,3.66,3.66A3.66,3.66,0,0,1,7.84,10Zm10.94,8.26a8,8,0,0,0-4.3-4,5.19,5.19,0,1,0-6,0,8,8,0,0,0-4.3,4A10,10,0,1,1,21.47,11.5,9.9,9.9,0,0,1,18.78,18.31Z"/></svg>