<svg id="Layer_1" data-name="Layer 1" xmlns="http://www.w3.org/2000/svg" viewBox="0 0 18 18.07"><defs><style>.cls-1{fill:#fff;}</style></defs><title>red_book_iconArtboard 1 copy 70</title><path class="cls-1" d="M15,8.06H13.91a5,5,0,0,0-.74-1.8l.77-.77a.5.5,0,0,0,0-.7l-.68-.68a.5.5,0,0,0-.7,0l-.77.77A5,5,0,0,0,10,4.13V3a.5.5,0,0,0-.5-.5h-1A.5.5,0,0,0,8,3V4.13a5,5,0,0,0-1.8.74L5.45,4.1a.5.5,0,0,0-.7,0l-.68.68a.5.5,0,0,0,0,.7l.77.77a5,5,0,0,0-.74,1.8H3a.5.5,0,0,0-.5.5v1A.5.5,0,0,0,3,10H4.09a5,5,0,0,0,.74,1.8l-.77.77a.5.5,0,0,0,0,.7l.68.68a.5.5,0,0,0,.7,0l.77-.77a5,5,0,0,0,1.8.75V15a.5.5,0,0,0,.5.5h1A.5.5,0,0,0,10,15V13.95a5,5,0,0,0,1.8-.75l.77.77a.5.5,0,0,0,.7,0l.68-.68a.5.5,0,0,0,0-.7l-.77-.77a5,5,0,0,0,.74-1.8H15a.5.5,0,0,0,.5-.5v-1A.5.5,0,0,0,15,8.06ZM9,11.4A2.37,2.37,0,1,1,11.37,9,2.37,2.37,0,0,1,9,11.4Z"/></svg>