<svg id="Layer_1" data-name="Layer 1" xmlns="http://www.w3.org/2000/svg" viewBox="0 0 18 18.07"><defs><style>.cls-1{fill:#fff;}</style></defs><title>red_book_iconArtboard 1 copy 90</title><path class="cls-1" d="M9,11.23a.94.94,0,0,0-.94.94v2.35a.63.63,0,0,1-.63.63H3.51a.63.63,0,0,1-.63-.63v-11a.63.63,0,0,1,.63-.63H7.43a.63.63,0,0,1,.63.63V5.9a.94.94,0,1,0,1.88,0V3.55A2.51,2.51,0,0,0,7.43,1H3.51A2.51,2.51,0,0,0,1,3.55v11A2.51,2.51,0,0,0,3.51,17H7.43a2.51,2.51,0,0,0,2.51-2.51V12.17A.94.94,0,0,0,9,11.23Zm8-2a1,1,0,0,0,0-.37l0-.06-.15,0,.14-.09,0-.09h0l0,0-.14.08.12-.11,0-.06-.12-.14L13.58,5.23a.94.94,0,0,0-1.33,1.33L13.78,8.1H5.08a.94.94,0,0,0,0,1.88h8.7l-1.53,1.53a.94.94,0,1,0,1.33,1.33L16.72,9.7l.09-.1,0,0,.05-.09,0-.08,0-.07-.15,0H17Z"/></svg>