<svg id="Layer_1" data-name="Layer 1" xmlns="http://www.w3.org/2000/svg" viewBox="0 0 10.01 10"><defs><style>.cls-1{fill:#fbac2b;}</style></defs><title>red_bookArtboard 1 copy 240</title><path class="cls-1" d="M10,3.77a.69.69,0,0,0-.55-.48l-2.64-.4L5.62.4A.67.67,0,0,0,4.71.07.69.69,0,0,0,4.39.4L3.22,2.88l-2.64.4a.7.7,0,0,0-.57.8.72.72,0,0,0,.19.4L2.11,6.42,1.66,9.16a.72.72,0,0,0,.27.71.66.66,0,0,0,.71.06L5,8.61,7.37,9.9a.61.61,0,0,0,.31.08.66.66,0,0,0,.4-.13.72.72,0,0,0,.27-.71L7.9,6.4,9.81,4.47A.73.73,0,0,0,10,3.77Z"/></svg>